<svg width="287" height="294" viewBox="0 0 287 294" fill="none" xmlns="http://www.w3.org/2000/svg">
<path fill-rule="evenodd" clip-rule="evenodd" d="M101.306 145.081C99.1124 144.493 96.6129 144.803 94.5268 146.008L94.8152 146.15C92.8063 147.31 91.2881 149.32 90.623 151.558L78.1355 198.155C76.6738 200.807 76.5876 204.141 78.2036 206.94C78.6259 207.672 79.1323 208.319 79.7027 208.879C80.7854 209.996 82.1714 210.836 83.7715 211.242L132.519 224.302C137.394 225.608 142.261 222.798 143.49 217.968C144.841 213.171 142.031 208.303 137.156 206.997L137.112 206.92L109.032 199.443L113.57 196.823C164.795 167.248 182.333 101.806 152.76 50.5838C150.307 46.3346 144.9 44.8208 140.573 47.3188C136.324 49.7723 134.854 55.2562 137.307 59.5054C161.974 102.229 147.375 156.703 104.649 181.371L100.261 183.905L107.762 156.084L107.717 156.007C108.991 151.254 106.136 146.31 101.306 145.081Z" fill="#15A1EF"/>
</svg>
